<?xml version="1.0" standalone="no"?>
<!DOCTYPE svg PUBLIC "-//W3C//DTD SVG 20010904//EN"
 "http://www.w3.org/TR/2001/REC-SVG-20010904/DTD/svg10.dtd">
<svg version="1.0" xmlns="http://www.w3.org/2000/svg"
 width="300.000000pt" height="203.000000pt" viewBox="0 0 300.000000 203.000000"
 preserveAspectRatio="xMidYMid meet">
<metadata>
Created by potrace 1.10, written by Peter Selinger 2001-2011
</metadata>
<g transform="translate(0.000000,203.000000) scale(0.100000,-0.100000)"
fill="#000000" stroke="none">
<path d="M1982 1660 c-12 -12 -22 -32 -22 -45 0 -24 41 -65 67 -65 19 0 63 45
63 65 0 22 -45 65 -68 65 -10 0 -28 -9 -40 -20z"/>
<path d="M1177 1652 c-37 -40 -9 -102 46 -102 14 0 33 7 41 16 20 20 20 68 0
88 -21 22 -67 20 -87 -2z"/>
<path d="M1593 1580 c-40 -39 -73 -71 -73 -73 0 -1 56 -1 125 1 l125 4 0 -131
0 -131 75 77 75 76 0 123 0 124 -127 0 -128 -1 -72 -69z m285 -66 c2 -79 0
-94 -18 -117 -36 -45 -50 -35 -50 32 0 33 -3 67 -6 76 -10 24 -53 42 -114 44
-30 2 -57 5 -59 7 -6 6 32 45 51 53 9 3 56 4 105 1 l88 -5 3 -91z"/>
<path d="M1140 1312 l0 -128 75 -74 75 -74 0 127 0 127 127 0 127 0 -74 75
-74 75 -128 0 -128 0 0 -128z m267 64 c37 -32 22 -46 -49 -46 -89 0 -108 -20
-108 -112 0 -37 -4 -68 -9 -68 -5 0 -20 13 -34 30 -22 26 -25 39 -25 107 -1
119 -6 113 104 112 83 -1 98 -4 121 -23z"/>
<path d="M1988 1148 l4 -131 -132 5 -132 6 73 -74 73 -74 131 0 130 0 -3 128
-3 129 -72 71 -72 72 3 -132z m86 -13 c12 -18 16 -50 16 -120 l0 -95 -98 0
c-96 0 -99 1 -127 30 -16 17 -25 31 -19 31 5 1 38 3 73 5 93 5 108 24 110 141
1 47 17 50 45 8z"/>
<path d="M1427 992 l-67 -68 0 -132 0 -132 122 0 122 0 77 75 77 75 -130 0
-130 0 4 125 c2 69 1 125 -2 125 -3 0 -36 -30 -73 -68z m34 -79 c4 -118 26
-143 125 -143 72 0 78 -9 31 -44 -21 -16 -45 -21 -105 -22 -117 -4 -112 -8
-112 104 0 85 3 98 22 119 30 32 38 29 39 -14z"/>
<path d="M2020 800 c-25 -25 -26 -62 0 -85 57 -52 137 18 89 78 -25 32 -61 35
-89 7z"/>
<path d="M1190 750 c-28 -28 -25 -64 6 -89 33 -26 45 -26 74 -3 43 35 15 112
-41 112 -10 0 -28 -9 -39 -20z"/>
<path d="M507 478 c-8 -18 -19 -50 -26 -71 -7 -20 -22 -42 -32 -48 -15 -8 -18
-14 -10 -23 8 -9 4 -29 -13 -72 -20 -49 -22 -60 -10 -62 26 -6 42 6 49 37 7
31 7 31 74 31 l67 0 13 -35 c9 -27 18 -35 36 -35 l24 0 -25 68 c-14 37 -40
105 -58 152 -25 68 -36 86 -53 88 -17 3 -25 -5 -36 -30z m59 -97 l20 -59 -43
-4 c-25 -2 -46 -2 -47 0 -4 4 38 122 44 122 3 0 14 -27 26 -59z"/>
<path d="M780 442 c0 -40 -5 -73 -12 -80 -9 -9 -9 -15 0 -24 7 -7 12 -39 12
-75 l0 -63 88 0 c80 0 91 2 110 23 20 21 22 34 22 129 l0 106 -31 26 c-27 23
-39 26 -110 26 l-79 0 0 -68z m162 1 c14 -13 18 -31 18 -91 0 -96 -12 -112
-84 -112 l-51 0 0 110 0 110 49 0 c32 0 56 -6 68 -17z"/>
<path d="M1145 480 c-24 -25 -29 -38 -26 -69 2 -29 -2 -42 -16 -50 -17 -11
-17 -11 0 -22 14 -8 18 -21 16 -50 -3 -29 2 -44 21 -64 21 -22 32 -25 90 -25
87 0 110 21 110 98 l0 52 -50 0 c-47 0 -50 -2 -50 -25 0 -21 5 -25 30 -25 34
0 39 -18 12 -43 -21 -19 -73 -22 -103 -7 -16 9 -19 22 -19 97 0 98 9 112 71
113 38 0 69 -24 69 -53 0 -10 8 -17 20 -17 16 0 20 7 20 34 0 52 -45 86 -114
86 -45 0 -56 -4 -81 -30z"/>
<path d="M1460 442 c0 -40 -5 -73 -12 -80 -9 -9 -9 -15 0 -24 7 -7 12 -39 12
-75 l0 -63 95 0 c88 0 95 1 95 20 0 18 -7 20 -75 20 l-75 0 0 46 0 45 58 -2
c52 -3 57 -1 60 19 3 21 0 22 -57 22 l-61 0 0 45 0 45 75 0 c73 0 75 1 75 25
0 25 0 25 -95 25 l-95 0 0 -68z"/>
<path d="M1760 442 c0 -40 -5 -73 -12 -80 -9 -9 -9 -15 0 -24 7 -7 12 -39 12
-75 0 -61 1 -63 26 -63 l27 0 -7 110 c-4 61 -5 110 -2 110 3 0 33 -49 66 -110
52 -93 66 -110 86 -110 23 0 24 3 24 65 0 48 4 66 16 73 14 8 14 10 0 21 -12
10 -16 32 -16 83 0 66 -1 69 -22 66 -21 -3 -22 -6 -19 -115 1 -62 0 -113 -2
-113 -3 0 -33 52 -67 115 -53 96 -67 115 -86 115 -23 0 -24 -3 -24 -68z"/>
<path d="M2121 440 c3 -53 0 -73 -10 -80 -13 -7 -13 -11 -1 -25 9 -10 13 -37
11 -76 -2 -57 -2 -59 23 -59 25 0 26 2 26 63 0 36 5 68 12 75 9 9 9 15 0 24
-7 7 -12 40 -12 80 0 66 -1 68 -26 68 -26 0 -26 0 -23 -70z"/>
<path d="M2310 442 c0 -40 -5 -73 -12 -80 -9 -9 -9 -15 0 -24 7 -7 12 -31 12
-54 0 -59 35 -84 117 -84 76 1 113 29 113 88 0 21 6 44 13 51 10 11 10 14 0
18 -9 3 -13 29 -13 79 0 72 -1 74 -25 74 l-25 0 0 -123 c0 -82 -4 -127 -12
-135 -17 -17 -93 -15 -108 3 -8 10 -12 52 -11 135 l2 120 -25 0 c-25 0 -26 -2
-26 -68z"/>
<path d="M2692 482 c-68 -57 -25 -152 69 -152 49 0 69 -13 69 -45 0 -32 -19
-45 -65 -45 -44 0 -65 13 -65 42 0 13 -8 18 -25 18 -36 0 -34 -43 3 -75 22
-20 38 -24 87 -24 76 0 107 22 110 79 2 32 -3 44 -30 70 -27 26 -39 31 -73 29
-41 -3 -72 13 -72 36 0 22 36 45 71 45 39 0 59 -15 59 -42 0 -13 8 -18 25 -18
37 0 33 38 -8 78 -44 43 -106 45 -155 4z"/>
</g>
</svg>
